{
	"asset":{
		"generator":"Khronos glTF Blender I/O v5.2.40",
		"version":"2.0"
	},
	"scene":0,
	"scenes":[
		{
			"name":"Scene",
			"nodes":[
				67
			]
		}
	],
	"nodes":[
		{
			"name":"index_04_leaf_l",
			"rotation":[
				2.7492546474518036e-15,
				1,
				2.5535133801543337e-15,
				3.5325672342878534e-06
			],
			"translation":[
				-1.874468580354005e-09,
				0.02351050265133381,
				-3.7196969060460106e-08
			]
		},
		{
			"children":[
				0
			],
			"name":"index_03_l",
			"rotation":[
				9.739085093940503e-10,
				-5.913714396649228e-12,
				-0.00013328903878573328,
				1
			],
			"scale":[
				0.9999999403953552,
				0.9999999403953552,
				1
			],
			"translation":[
				1.850821718107909e-09,
				0.027111820876598358,
				-1.548696815234507e-07
			]
		},
		{
			"children":[
				1
			],
			"name":"index_02_l",
			"rotation":[
				1.8630846199130247e-08,
				9.283588298103496e-08,
				-0.002140250988304615,
				0.9999977350234985
			],
			"scale":[
				0.9999999403953552,
				0.9999999403953552,
				1
			],
			"translation":[
				5.4296833695843816e-09,
				0.03171011805534363,
				-1.2588039055572153e-07
			]
		},
		{
			"children":[
				2
			],
			"name":"index_01_l",
			"rotation":[
				-0.0033092291560024023,
				0.7071018815040588,
				-0.003309245454147458,
				0.7070961594581604
			],
			"scale":[
				1.0000001192092896,
				1,
				1
			],
			"translation":[
				0.004200096242129803,
				0.08823657780885696,
				0.03620496019721031
			]
		},
		{
			"name":"middle_04_leaf_l",
			"rotation":[
				1.862645149230957e-09,
				1,
				-1.0705976375064742e-14,
				3.651776296464959e-06
			],
			"translation":[
				6.542904884554446e-09,
				0.02962053194642067,
				-2.472417008902994e-07
			]
		},
		{
			"children":[
				4
			],
			"name":"middle_03_l",
			"rotation":[
				2.351862882221667e-08,
				-1.496566343073269e-10,
				-0.0032189537305384874,
				0.9999948143959045
			],
			"scale":[
				0.9999998807907104,
				0.9999998807907104,
				1
			],
			"translation":[
				3.746208676602691e-09,
				0.029313698410987854,
				-3.2908138791754027e-07
			]
		},
		{
			"children":[
				5
			],
			"name":"middle_02_l",
			"rotation":[
				-2.8855092537583005e-08,
				9.281674806516094e-08,
				0.003867650870233774,
				0.9999924898147583
			],
			"scale":[
				1,
				0.9999999403953552,
				0.9999999403953552
			],
			"translation":[
				8.65929905558005e-09,
				0.03642698749899864,
				3.3881815397762693e-07
			]
		},
		{
			"children":[
				6
			],
			"name":"middle_01_l",
			"rotation":[
				-0.007979901507496834,
				0.7070645689964294,
				-0.007979950867593288,
				0.7070589661598206
			],
			"scale":[
				1,
				0.9999999403953552,
				1
			],
			"translation":[
				0.0018998105078935623,
				0.08634155243635178,
				0.010671654716134071
			]
		},
		{
			"name":"pinky_04_leaf_l",
			"rotation":[
				2.6344910070787106e-17,
				1,
				4.062495799424292e-15,
				3.65177675121231e-06
			],
			"translation":[
				2.9049260774627328e-09,
				0.02091941609978676,
				4.111697933240066e-07
			]
		},
		{
			"children":[
				8
			],
			"name":"pinky_03_l",
			"rotation":[
				-2.1178077957983987e-08,
				1.405233013285212e-10,
				0.00289887934923172,
				0.9999958276748657
			],
			"scale":[
				0.9999999403953552,
				1,
				1
			],
			"translation":[
				-8.194547262974083e-10,
				0.026631638407707214,
				-2.1755684542767995e-07
			]
		},
		{
			"children":[
				9
			],
			"name":"pinky_02_l",
			"rotation":[
				1.0030219321777167e-08,
				9.230638653434653e-08,
				-0.0017049339367076755,
				0.9999985694885254
			],
			"scale":[
				0.9999999403953552,
				0.9999999403953552,
				1
			],
			"translation":[
				-1.3915268937125802e-09,
				0.03083178773522377,
				1.45209611446262e-07
			]
		},
		{
			"children":[
				10
			],
			"name":"pinky_01_l",
			"rotation":[
				-0.010447799228131771,
				0.7070324420928955,
				-0.010447870939970016,
				0.7070267796516418
			],
			"scale":[
				1,
				0.9999997615814209,
				1
			],
			"translation":[
				0.003800085047259927,
				0.06994838267564774,
				-0.033994145691394806
			]
		},
		{
			"name":"ring_04_leaf_l",
			"rotation":[
				4.2931719347796403e-17,
				1,
				-1.2015580579319957e-15,
				3.6517765238386346e-06
			],
			"translation":[
				-8.692040864843875e-09,
				0.02830166183412075,
				1.9115270788461203e-07
			]
		},
		{
			"children":[
				12
			],
			"name":"ring_03_l",
			"rotation":[
				2.5491752708717286e-08,
				-1.6107373768114996e-10,
				-0.0034884766209870577,
				0.9999939203262329
			],
			"scale":[
				1,
				0.9999999403953552,
				1
			],
			"translation":[
				-5.411493475548923e-10,
				0.027600325644016266,
				-7.256748091322152e-09
			]
		},
		{
			"children":[
				13
			],
			"name":"ring_02_l",
			"rotation":[
				-1.7786542017006468e-08,
				9.34130710561476e-08,
				0.002474062377586961,
				0.9999969601631165
			],
			"translation":[
				6.501977622974664e-09,
				0.03500130772590637,
				-4.5830233830201905e-08
			]
		},
		{
			"children":[
				14
			],
			"name":"ring_01_l",
			"rotation":[
				0.0025809367652982473,
				0.7071049213409424,
				0.002580952364951372,
				0.707099199295044
			],
			"scale":[
				1.0000001192092896,
				1.0000001192092896,
				1.0000001192092896
			],
			"translation":[
				0.0021999571472406387,
				0.08042959868907928,
				-0.013825241476297379
			]
		},
		{
			"name":"thumb_04_leaf_l",
			"rotation":[
				5.539166636481241e-08,
				0.48539113998413086,
				4.274212628274654e-08,
				0.8742971420288086
			],
			"translation":[
				1.1670636013150215e-07,
				0.0312727689743042,
				8.195638656616211e-08
			]
		},
		{
			"children":[
				16
			],
			"name":"thumb_03_l",
			"rotation":[
				-0.001281612552702427,
				5.808662899653427e-05,
				0.0002542141010053456,
				0.9999991655349731
			],
			"scale":[
				1.0000001192092896,
				1.0000001192092896,
				1.0000001192092896
			],
			"translation":[
				2.570704964455217e-07,
				0.03562021628022194,
				-5.4016709327697754e-08
			]
		},
		{
			"children":[
				17
			],
			"name":"thumb_02_l",
			"rotation":[
				0.001912894076667726,
				0.00019216160580981523,
				-0.00044798539602197707,
				0.9999980330467224
			],
			"scale":[
				0.9999999403953552,
				0.9999999403953552,
				0.9999999403953552
			],
			"translation":[
				1.7719139577820897e-07,
				0.03582116216421127,
				9.313225746154785e-09
			]
		},
		{
			"children":[
				18
			],
			"name":"thumb_01_l",
			"rotation":[
				0.2639973759651184,
				0.9450139403343201,
				0.18827390670776367,
				0.042507875710725784
			],
			"scale":[
				1.0000001192092896,
				1.0000001192092896,
				1
			],
			"translation":[
				0.010000218637287617,
				-0.002875791396945715,
				0.029958155006170273
			]
		},
		{
			"children":[
				3,
				7,
				11,
				15,
				19
			],
			"name":"hand_l",
			"rotation":[
				-0.02237602137029171,
				-2.264403519802727e-06,
				-3.0320130406380486e-08,
				0.9997496008872986
			],
			"scale":[
				1,
				0.9999999403953552,
				1
			],
			"translation":[
				1.5319372437261336e-08,
				0.2493039071559906,
				-5.281435733195394e-09
			]
		},
		{
			"children":[
				20
			],
			"name":"lowerarm_l",
			"rotation":[
				0.023802198469638824,
				8.212145621655509e-05,
				-1.8738647895588656e-06,
				0.9997166991233826
			],
			"translation":[
				-3.754962563107256e-08,
				0.24034209549427032,
				4.3655745685100555e-11
			]
		},
		{
			"children":[
				21
			],
			"name":"upperarm_l",
			"rotation":[
				0.17232586443424225,
				0.6858593821525574,
				-0.17179425060749054,
				0.6858479976654053
			],
			"scale":[
				0.9999998211860657,
				1,
				1
			],
			"translation":[
				-0.0016045644879341125,
				0.1410660296678543,
				-0.01228613592684269
			]
		},
		{
			"children":[
				22
			],
			"name":"clavicle_l",
			"rotation":[
				-0.5471323728561401,
				-0.32042762637138367,
				-0.39127787947654724,
				0.6669886708259583
			],
			"scale":[
				1,
				1.0000001192092896,
				1.0000001192092896
			],
			"translation":[
				0.029299993067979813,
				0.1337030529975891,
				0.04481939971446991
			]
		},
		{
			"name":"index_04_leaf_r",
			"rotation":[
				-9.313221305262687e-10,
				-1,
				-7.335314852342898e-16,
				3.532567461661529e-06
			],
			"scale":[
				1,
				1,
				0.9999999403953552
			],
			"translation":[
				4.783942131325603e-10,
				0.02351049892604351,
				8.212776947402745e-08
			]
		},
		{
			"children":[
				24
			],
			"name":"index_03_r",
			"rotation":[
				9.708914783246314e-10,
				8.754108549169359e-13,
				0.00013328902423381805,
				1
			],
			"translation":[
				-3.2478055800311267e-09,
				0.02711181715130806,
				-1.5475893633265514e-07
			]
		},
		{
			"children":[
				25
			],
			"name":"index_02_r",
			"rotation":[
				1.8606584717417718e-08,
				-8.149984864758153e-08,
				0.002140252385288477,
				0.9999977350234985
			],
			"scale":[
				0.9999998807907104,
				0.9999999403953552,
				0.9999999403953552
			],
			"translation":[
				-3.370587364770472e-09,
				0.03171011433005333,
				-6.671029950666707e-09
			]
		},
		{
			"children":[
				26
			],
			"name":"index_01_r",
			"rotation":[
				-0.003309229388833046,
				-0.7071018218994141,
				0.003309245454147458,
				0.7070962190628052
			],
			"scale":[
				1.0000001192092896,
				1.0000001192092896,
				1
			],
			"translation":[
				-0.0042002154514193535,
				0.08823657780885696,
				0.03620496019721031
			]
		},
		{
			"name":"middle_04_leaf_r",
			"rotation":[
				-1.862645149230957e-09,
				-1,
				-6.796048573616369e-15,
				3.6517765238386346e-06
			],
			"translation":[
				-4.680259735323489e-09,
				0.029620587825775146,
				-9.163201752926398e-09
			]
		},
		{
			"children":[
				28
			],
			"name":"middle_03_r",
			"rotation":[
				2.3445577923553174e-08,
				3.9628508807787455e-11,
				0.0032189551275223494,
				0.9999948143959045
			],
			"scale":[
				0.9999998807907104,
				0.9999999403953552,
				1
			],
			"translation":[
				-3.746208676602691e-09,
				0.02931375242769718,
				-2.1033213215559954e-07
			]
		},
		{
			"children":[
				29
			],
			"name":"middle_02_r",
			"rotation":[
				-2.8811111718596294e-08,
				-8.144598950821091e-08,
				-0.0038676667027175426,
				0.9999924898147583
			],
			"scale":[
				1,
				0.9999999403953552,
				1
			],
			"translation":[
				-6.032678356859833e-09,
				0.03642692416906357,
				3.388180402907892e-07
			]
		},
		{
			"children":[
				30
			],
			"name":"middle_01_r",
			"rotation":[
				-0.007979911752045155,
				-0.7070645689964294,
				0.007979964837431908,
				0.7070589661598206
			],
			"scale":[
				1,
				0.9999998211860657,
				1
			],
			"translation":[
				-0.001899929717183113,
				0.08634161204099655,
				0.010671657510101795
			]
		},
		{
			"name":"pinky_04_leaf_r",
			"rotation":[
				-9.313225746154785e-10,
				-1,
				-2.143420261158796e-15,
				3.65177675121231e-06
			],
			"translation":[
				-1.4079887478146702e-08,
				0.020919421687722206,
				4.0992617300616985e-07
			]
		},
		{
			"children":[
				32
			],
			"name":"pinky_03_r",
			"rotation":[
				-2.111456609554807e-08,
				-2.925272177267679e-11,
				-0.002898876555263996,
				0.9999958276748657
			],
			"scale":[
				1,
				0.9999998807907104,
				1
			],
			"translation":[
				8.185452315956354e-10,
				0.026631701737642288,
				-2.1869041688660218e-07
			]
		},
		{
			"children":[
				33
			],
			"name":"pinky_02_r",
			"rotation":[
				1.0012112028334741e-08,
				-8.136658635748972e-08,
				0.0017049906309694052,
				0.9999985694885254
			],
			"scale":[
				0.9999999403953552,
				1,
				1
			],
			"translation":[
				6.45741238258779e-11,
				0.030831782147288322,
				2.600106085992593e-08
			]
		},
		{
			"children":[
				34
			],
			"name":"pinky_01_r",
			"rotation":[
				-0.010447758249938488,
				-0.7070324420928955,
				0.010447829030454159,
				0.7070267796516418
			],
			"scale":[
				1,
				0.9999998807907104,
				1
			],
			"translation":[
				-0.0038002042565494776,
				0.06994832307100296,
				-0.03399414196610451
			]
		},
		{
			"name":"ring_04_leaf_r",
			"rotation":[
				6.984919864727601e-10,
				-1,
				2.542883540182766e-15,
				3.6517765238386346e-06
			],
			"scale":[
				0.9999999403953552,
				0.9999999403953552,
				1
			],
			"translation":[
				1.0555595508776605e-08,
				0.02830166183412075,
				7.056855366727177e-08
			]
		},
		{
			"children":[
				36
			],
			"name":"ring_03_r",
			"rotation":[
				2.5409862658420934e-08,
				3.0871413064792463e-11,
				0.0034884768538177013,
				0.9999939203262329
			],
			"scale":[
				0.9999999403953552,
				0.9999998807907104,
				1
			],
			"translation":[
				-3.892637323588133e-10,
				0.027600327506661415,
				-1.2798531656699197e-07
			]
		},
		{
			"children":[
				37
			],
			"name":"ring_02_r",
			"rotation":[
				-1.7757548320673777e-08,
				-8.15895617733986e-08,
				-0.0024740740191191435,
				0.9999969601631165
			],
			"scale":[
				1,
				1.0000001192092896,
				1
			],
			"translation":[
				-3.4006006899289787e-09,
				0.03500131145119667,
				-4.583034041161227e-08
			]
		},
		{
			"children":[
				38
			],
			"name":"ring_01_r",
			"rotation":[
				0.002580927452072501,
				-0.7071048617362976,
				-0.002580943051725626,
				0.7070992588996887
			],
			"scale":[
				1.0000001192092896,
				1.000000238418579,
				1.0000001192092896
			],
			"translation":[
				-0.0022000763565301895,
				0.08042959868907928,
				-0.013825236819684505
			]
		},
		{
			"name":"thumb_04_leaf_r",
			"rotation":[
				-4.0265473444378586e-07,
				-0.48539113998413086,
				-3.6746908449458715e-07,
				0.8742970824241638
			],
			"scale":[
				1.0000001192092896,
				1.0000001192092896,
				1.0000001192092896
			],
			"translation":[
				-1.9799335859715939e-07,
				0.03127248212695122,
				2.3283064365386963e-08
			]
		},
		{
			"children":[
				40
			],
			"name":"thumb_03_r",
			"rotation":[
				-0.0012813984649255872,
				-5.804193642688915e-05,
				-0.0002540519635658711,
				0.9999991655349731
			],
			"scale":[
				1,
				1,
				0.9999999403953552
			],
			"translation":[
				-7.632115739397705e-08,
				0.03562033176422119,
				-1.909211277961731e-08
			]
		},
		{
			"children":[
				41
			],
			"name":"thumb_02_r",
			"rotation":[
				0.0019126592669636011,
				-0.00019213504856452346,
				0.0004488469276111573,
				0.9999980330467224
			],
			"scale":[
				1,
				1,
				0.9999999403953552
			],
			"translation":[
				-5.349284037947655e-08,
				0.03582099825143814,
				1.0244548320770264e-08
			]
		},
		{
			"children":[
				42
			],
			"name":"thumb_01_r",
			"rotation":[
				0.2639977037906647,
				-0.9450138807296753,
				-0.1882738173007965,
				0.042507655918598175
			],
			"scale":[
				1,
				1.000000238418579,
				1.0000001192092896
			],
			"translation":[
				-0.010000337846577168,
				-0.002875855192542076,
				0.02995815873146057
			]
		},
		{
			"children":[
				27,
				31,
				35,
				39,
				43
			],
			"name":"hand_r",
			"rotation":[
				-0.022376015782356262,
				2.264403519802727e-06,
				3.0320133959094164e-08,
				0.9997496008872986
			],
			"translation":[
				-1.345286761988973e-07,
				0.2493038773536682,
				-1.3915268937125802e-09
			]
		},
		{
			"children":[
				44
			],
			"name":"lowerarm_r",
			"rotation":[
				0.023802194744348526,
				-8.214779518311843e-05,
				1.871871745606768e-06,
				0.9997166991233826
			],
			"translation":[
				-7.68957306718221e-08,
				0.24034208059310913,
				-5.820766091346741e-11
			]
		},
		{
			"children":[
				45
			],
			"name":"upperarm_r",
			"rotation":[
				0.17232584953308105,
				-0.6858593821525574,
				0.17179425060749054,
				0.68584805727005
			],
			"scale":[
				1,
				1.0000001192092896,
				1
			],
			"translation":[
				0.0016045774100348353,
				0.1410660445690155,
				-0.012286133132874966
			]
		},
		{
			"children":[
				46
			],
			"name":"clavicle_r",
			"rotation":[
				-0.5471324324607849,
				0.3204275965690613,
				0.39127781987190247,
				0.666988730430603
			],
			"translation":[
				-0.02930000051856041,
				0.1337030529975891,
				0.04481939226388931
			]
		},
		{
			"name":"Head",
			"rotation":[
				-0.20467452704906464,
				-2.2516413622497566e-08,
				-1.7280164854582836e-08,
				0.978830099105835
			],
			"scale":[
				1,
				1,
				0.9999998807907104
			],
			"translation":[
				-8.792771198640192e-15,
				0.07119113206863403,
				9.872019290924072e-08
			]
		},
		{
			"children":[
				48
			],
			"name":"neck_01",
			"rotation":[
				0.30883723497390747,
				1.1008792100142273e-08,
				2.960400280471731e-08,
				0.9511148929595947
			],
			"translation":[
				-1.6167622796103842e-15,
				0.19815583527088165,
				-1.4901161193847656e-08
			]
		},
		{
			"children":[
				23,
				47,
				49
			],
			"name":"spine_03",
			"rotation":[
				-0.10099761933088303,
				-3.914494328682849e-08,
				-1.248660641550714e-08,
				0.9948866963386536
			],
			"translation":[
				2.4143013976907213e-15,
				0.12640145421028137,
				-1.4901161193847656e-08
			]
		},
		{
			"children":[
				50
			],
			"name":"spine_02",
			"rotation":[
				-0.05572862923145294,
				-4.984097176929936e-05,
				-2.7909743494092254e-06,
				0.998445987701416
			],
			"scale":[
				1,
				0.9999998807907104,
				0.9999999403953552
			],
			"translation":[
				-1.1426440306092078e-12,
				0.1103447675704956,
				1.792795956134796e-08
			]
		},
		{
			"children":[
				51
			],
			"name":"spine_01",
			"rotation":[
				-0.06393158435821533,
				4.977786375093274e-05,
				-3.204262611689046e-06,
				0.9979543089866638
			],
			"translation":[
				-1.3607405133231332e-12,
				0.12655523419380188,
				-7.264316082000732e-08
			]
		},
		{
			"name":"ball_leaf_l",
			"rotation":[
				-1.9367938364212023e-09,
				0.0001727771887090057,
				-3.2254294721201227e-12,
				1
			],
			"translation":[
				1.2304537388985182e-09,
				0.06809969246387482,
				-6.31068530765333e-10
			]
		},
		{
			"children":[
				53
			],
			"name":"ball_l",
			"rotation":[
				-3.2927269785432145e-05,
				0.9816133379936218,
				-0.19088023900985718,
				0.0001697494153631851
			],
			"scale":[
				1,
				1.0000001192092896,
				0.9999998211860657
			],
			"translation":[
				1.5736935310428635e-08,
				0.1491694152355194,
				-1.858898102113926e-08
			]
		},
		{
			"children":[
				54
			],
			"name":"foot_l",
			"rotation":[
				-0.5978575348854065,
				1.411616494806367e-07,
				-1.4982634866100852e-07,
				0.8016024231910706
			],
			"scale":[
				1,
				0.9999999403953552,
				0.9999998807907104
			],
			"translation":[
				8.727606193303927e-09,
				0.4661003649234772,
				-3.341466658923764e-09
			]
		},
		{
			"children":[
				55
			],
			"name":"calf_l",
			"rotation":[
				0.07122272998094559,
				-2.4505490969772836e-08,
				5.256782120710568e-09,
				0.9974604249000549
			],
			"scale":[
				1,
				0.9999999403953552,
				1
			],
			"translation":[
				-1.0215511103695007e-08,
				0.4098643362522125,
				4.897668048897685e-09
			]
		},
		{
			"children":[
				56
			],
			"name":"thigh_l",
			"rotation":[
				0.9893750548362732,
				-1.0272847461578749e-08,
				1.8015899172496574e-07,
				0.1453859955072403
			],
			"scale":[
				1,
				1.0000001192092896,
				1.0000027418136597
			],
			"translation":[
				0.11139998584985733,
				0.010460044257342815,
				-0.008893008343875408
			]
		},
		{
			"name":"ball_leaf_r",
			"rotation":[
				-1.9367938364212023e-09,
				0.0001727771887090057,
				-3.2254294721201227e-12,
				1
			],
			"translation":[
				1.2304537388985182e-09,
				0.06809969246387482,
				-9.948664114745043e-10
			]
		},
		{
			"children":[
				58
			],
			"name":"ball_r",
			"rotation":[
				-3.2927269785432145e-05,
				0.9816133379936218,
				-0.19088023900985718,
				0.0001697494153631851
			],
			"scale":[
				1,
				1.0000001192092896,
				0.9999998211860657
			],
			"translation":[
				-1.4065387077266678e-08,
				0.1491694152355194,
				-1.6801276814248922e-08
			]
		},
		{
			"children":[
				59
			],
			"name":"foot_r",
			"rotation":[
				-0.5978575348854065,
				1.411616494806367e-07,
				-1.4982634866100852e-07,
				0.8016024231910706
			],
			"scale":[
				1,
				0.9999999403953552,
				0.9999998807907104
			],
			"translation":[
				-6.173555000543729e-09,
				0.4661003649234772,
				-5.040436512615543e-09
			]
		},
		{
			"children":[
				60
			],
			"name":"calf_r",
			"rotation":[
				0.07122272998094559,
				-2.4505490969772836e-08,
				5.256781676621358e-09,
				0.9974604249000549
			],
			"scale":[
				1,
				0.9999999403953552,
				1
			],
			"translation":[
				4.685650534241859e-09,
				0.4098643362522125,
				4.4155576972571e-09
			]
		},
		{
			"children":[
				61
			],
			"name":"thigh_r",
			"rotation":[
				0.9893750548362732,
				-1.0272847461578749e-08,
				1.8015899172496574e-07,
				0.1453859955072403
			],
			"scale":[
				1,
				1.0000001192092896,
				1.0000027418136597
			],
			"translation":[
				-0.11139998584985733,
				0.010460044257342815,
				-0.008893062360584736
			]
		},
		{
			"children":[
				52,
				57,
				62
			],
			"name":"pelvis",
			"rotation":[
				0.7879695892333984,
				7.397003543019309e-08,
				9.466427997040228e-08,
				0.6157141327857971
			],
			"translation":[
				0,
				0.04569995403289795,
				0.9317998886108398
			]
		},
		{
			"children":[
				63
			],
			"name":"root",
			"rotation":[
				-0.7071067690849304,
				0,
				0,
				0.7071067690849304
			]
		},
		{
			"mesh":0,
			"name":"SleeveL",
			"skin":0
		},
		{
			"mesh":1,
			"name":"SleeveR",
			"skin":0
		},
		{
			"children":[
				65,
				66,
				64
			],
			"name":"Armature"
		}
	],
	"materials":[
		{
			"doubleSided":true,
			"name":"TopCharcoal.001",
			"pbrMetallicRoughness":{
				"baseColorFactor":[
					0.11999999731779099,
					0.11999999731779099,
					0.14000000059604645,
					1
				],
				"metallicFactor":0,
				"roughnessFactor":0.5
			}
		},
		{
			"doubleSided":true,
			"name":"TopCharcoal",
			"pbrMetallicRoughness":{
				"baseColorFactor":[
					0.11999999731779099,
					0.11999999731779099,
					0.14000000059604645,
					1
				],
				"metallicFactor":0,
				"roughnessFactor":0.5
			}
		}
	],
	"meshes":[
		{
			"name":"SleeveL",
			"primitives":[
				{
					"attributes":{
						"POSITION":0,
						"NORMAL":1,
						"TEXCOORD_0":2,
						"TEXCOORD_1":3,
						"JOINTS_0":4,
						"WEIGHTS_0":5
					},
					"indices":6,
					"material":0
				}
			]
		},
		{
			"name":"SleeveR",
			"primitives":[
				{
					"attributes":{
						"POSITION":8,
						"NORMAL":9,
						"TEXCOORD_0":10,
						"TEXCOORD_1":11,
						"JOINTS_0":12,
						"WEIGHTS_0":13
					},
					"indices":14,
					"material":1
				}
			]
		}
	],
	"skins":[
		{
			"inverseBindMatrices":7,
			"joints":[
				64,
				63,
				52,
				51,
				50,
				23,
				22,
				21,
				20,
				3,
				2,
				1,
				0,
				7,
				6,
				5,
				4,
				11,
				10,
				9,
				8,
				15,
				14,
				13,
				12,
				19,
				18,
				17,
				16,
				47,
				46,
				45,
				44,
				27,
				26,
				25,
				24,
				31,
				30,
				29,
				28,
				35,
				34,
				33,
				32,
				39,
				38,
				37,
				36,
				43,
				42,
				41,
				40,
				49,
				48,
				57,
				56,
				55,
				54,
				53,
				62,
				61,
				60,
				59,
				58
			],
			"name":"Armature"
		}
	],
	"accessors":[
		{
			"bufferView":0,
			"componentType":5126,
			"count":788,
			"max":[
				-0.10833358764648438,
				1.4890223741531372,
				0.12294582277536392
			],
			"min":[
				-0.41999998688697815,
				1.2686022520065308,
				-0.11783073842525482
			],
			"type":"VEC3"
		},
		{
			"bufferView":1,
			"componentType":5126,
			"count":788,
			"type":"VEC3"
		},
		{
			"bufferView":2,
			"componentType":5126,
			"count":788,
			"type":"VEC2"
		},
		{
			"bufferView":3,
			"componentType":5126,
			"count":788,
			"type":"VEC2"
		},
		{
			"bufferView":4,
			"componentType":5121,
			"count":788,
			"type":"VEC4"
		},
		{
			"bufferView":5,
			"componentType":5126,
			"count":788,
			"type":"VEC4"
		},
		{
			"bufferView":6,
			"componentType":5123,
			"count":4224,
			"type":"SCALAR"
		},
		{
			"bufferView":7,
			"componentType":5126,
			"count":65,
			"type":"MAT4"
		},
		{
			"bufferView":8,
			"componentType":5126,
			"count":788,
			"max":[
				0.41999998688697815,
				1.4890220165252686,
				0.12294582277536392
			],
			"min":[
				0.10833358764648438,
				1.2686022520065308,
				-0.11783073842525482
			],
			"type":"VEC3"
		},
		{
			"bufferView":9,
			"componentType":5126,
			"count":788,
			"type":"VEC3"
		},
		{
			"bufferView":10,
			"componentType":5126,
			"count":788,
			"type":"VEC2"
		},
		{
			"bufferView":11,
			"componentType":5126,
			"count":788,
			"type":"VEC2"
		},
		{
			"bufferView":12,
			"componentType":5121,
			"count":788,
			"type":"VEC4"
		},
		{
			"bufferView":13,
			"componentType":5126,
			"count":788,
			"type":"VEC4"
		},
		{
			"bufferView":14,
			"componentType":5123,
			"count":4224,
			"type":"SCALAR"
		}
	],
	"bufferViews":[
		{
			"buffer":0,
			"byteLength":9456,
			"byteOffset":0,
			"target":34962
		},
		{
			"buffer":0,
			"byteLength":9456,
			"byteOffset":9456,
			"target":34962
		},
		{
			"buffer":0,
			"byteLength":6304,
			"byteOffset":18912,
			"target":34962
		},
		{
			"buffer":0,
			"byteLength":6304,
			"byteOffset":25216,
			"target":34962
		},
		{
			"buffer":0,
			"byteLength":3152,
			"byteOffset":31520,
			"target":34962
		},
		{
			"buffer":0,
			"byteLength":12608,
			"byteOffset":34672,
			"target":34962
		},
		{
			"buffer":0,
			"byteLength":8448,
			"byteOffset":47280,
			"target":34963
		},
		{
			"buffer":0,
			"byteLength":4160,
			"byteOffset":55728
		},
		{
			"buffer":0,
			"byteLength":9456,
			"byteOffset":59888,
			"target":34962
		},
		{
			"buffer":0,
			"byteLength":9456,
			"byteOffset":69344,
			"target":34962
		},
		{
			"buffer":0,
			"byteLength":6304,
			"byteOffset":78800,
			"target":34962
		},
		{
			"buffer":0,
			"byteLength":6304,
			"byteOffset":85104,
			"target":34962
		},
		{
			"buffer":0,
			"byteLength":3152,
			"byteOffset":91408,
			"target":34962
		},
		{
			"buffer":0,
			"byteLength":12608,
			"byteOffset":94560,
			"target":34962
		},
		{
			"buffer":0,
			"byteLength":8448,
			"byteOffset":107168,
			"target":34963
		}
	],
	"buffers":[
		{
			"byteLength":115616,
			"uri":"sleeves_short.bin"
		}
	]
}
